<svg xmlns="http://www.w3.org/2000/svg" viewBox="0 0 64 64" id="bus"><path fill="#9bc9ff" d="M58,44V10a3,3,0,0,0-3-3H21a3,3,0,0,0-3,3V44H16v8h5v7h6V52H49v7h6V52h5V44ZM44,40V36H54v4ZM22,12H53a1,1,0,0,1,1,1V26H22Zm0,24H32v4H22Z"></path><polygon fill="#9bc9ff" points="3 43 6 43 9 43 12 43 12 27 12 21 3 21 3 43"></polygon><path fill="#4f9af5" d="M53 11H22a1 1 0 0 0-1 1V26a1 1 0 0 0 1 1H54a1 1 0 0 0 1-1V13A2 2 0 0 0 53 11zm0 14H46.414l-5.707-5.707-1.414 1.414L43.586 25H23V13H53zM32 35H22a1 1 0 0 0-1 1v4a1 1 0 0 0 1 1H32a1 1 0 0 0 1-1V36A1 1 0 0 0 32 35zm-1 4H23V37h8zM54 35H44a1 1 0 0 0-1 1v4a1 1 0 0 0 1 1H54a1 1 0 0 0 1-1V36A1 1 0 0 0 54 35zm-1 4H45V37h8z"></path><path fill="#4f9af5" d="M61,28a1,1,0,0,0,1-1V23a1,1,0,0,0-1-1H59V10a4,4,0,0,0-4-4H46V3a1,1,0,0,0-1-1H31a1,1,0,0,0-1,1V6H21a4,4,0,0,0-4,4V22H15a1,1,0,0,0-1,1v4a1,1,0,0,0,1,1h2V43H16a1,1,0,0,0-1,1v8a1,1,0,0,0,1,1h4v6a1,1,0,0,0,1,1H10V44h2a1,1,0,0,0,1-1V21a1,1,0,0,0-1-1H3a1,1,0,0,0-1,1V43a1,1,0,0,0,1,1H5V60H2v2H62V60H55a1,1,0,0,0,1-1V53h4a1,1,0,0,0,1-1V44a1,1,0,0,0-1-1H59V28ZM4,22h7V42H4ZM7,60V44H8V60ZM60,24v2H59V24ZM32,4H44V6H32ZM16,26V24h1v2ZM26,53v5H22V53Zm1,7a1,1,0,0,0,1-1V53h3v3a1,1,0,0,0,1,1H44a1,1,0,0,0,1-1V53h3v6a1,1,0,0,0,1,1Zm6-7H43v2H33Zm21,5H50V53h4Zm5-7H17V45H59ZM19,43V10a2,2,0,0,1,2-2H55a2,2,0,0,1,2,2V43Z"></path></svg>