<svg xmlns="http://www.w3.org/2000/svg" viewBox="0 0 64 64" id="bus"><g><circle cx="32" cy="32" r="29" fill="#63cdf7"></circle><path fill="#f9b233" d="M61 9.942H27.765a10.341 10.341 0 0 0-4.752 1.158l-1.468.759a11.25 11.25 0 0 0-5.93 8.916c-.65 6.489-1.635 16.4-2.069 21.112a6.8 6.8 0 0 0 2.25 5.738 6.166 6.166 0 0 0 4.056 1.539H61Z"></path><path fill="#fff" style="mix-blend-mode:overlay" d="M17.529 45.765c.421-5.82 1.356-17.843 2.066-26.9a9.592 9.592 0 0 1 3.787-7.353l1.468-.969a5.856 5.856 0 0 1 .564-.32 10.428 10.428 0 0 0-2.4.884l-1.468.759a11.25 11.25 0 0 0-5.93 8.916c-.65 6.489-1.635 16.4-2.069 21.112a6.8 6.8 0 0 0 2.25 5.738 6.22 6.22 0 0 0 2.935 1.432 2.582 2.582 0 0 1-.3-.283 4.127 4.127 0 0 1-.903-3.016Z" opacity=".2"></path><path style="mix-blend-mode:multiply" d="M57 9.942h4v39.225h-4z" opacity=".1"></path><path fill="#fff" d="M25.765 26.269h8.206V12.942h-6.206a7.38 7.38 0 0 0-3.374.827l-1.468.76a8.2 8.2 0 0 0-4.323 6.549c-.346 3.456-.744 7.46-1.112 11.188h7.075ZM36.971 12.942h12.218v13.327H36.971zM52.189 12.942H61v13.327h-8.811zM44.284 46.444a5.7 5.7 0 1 0 .332 1.9 5.708 5.708 0 0 0-.332-1.9Z"></path><path style="mix-blend-mode:multiply" fill="#1d1d1b" d="M46.429 12.942h2.76v13.327h-2.76zM58.24 12.942H61v13.327h-2.76zM31.211 12.942h2.76v13.327h-2.76z" opacity=".15"></path><path fill="#fff" d="M17.58 40.02a3.06 3.06 0 0 1-3.06 3.06 3.194 3.194 0 0 1-.98-.16 5.915 5.915 0 0 1 .01-1.03c.12-1.29.28-2.98.46-4.88a2.1 2.1 0 0 1 .51-.05 3.06 3.06 0 0 1 3.06 3.06Z"></path><path fill="#1d1d1b" style="mix-blend-mode:multiply" d="M14.52 36.96c-.076 0-.143.016-.216.021 1.028.11 1.843 1.421 1.843 3.039s-.821 2.94-1.855 3.041c.076.006.151.019.228.019a3.06 3.06 0 0 0 0-6.12Z" opacity=".15"></path><path d="M30.511 28.77h3.286v1h-3.286z"></path><circle cx="38.906" cy="48.347" r="2.248"></circle><path d="M24.973 32.766h-8.036l.053-.549c.367-3.728.767-7.733 1.114-11.189a8.7 8.7 0 0 1 4.589-6.944l1.469-.759a7.884 7.884 0 0 1 3.6-.883h6.706V26.77h-8.3zm-6.933-1h6.112l1.2-6h8.118V13.442h-5.704a6.875 6.875 0 0 0-3.145.772l-1.469.759a7.706 7.706 0 0 0-4.052 6.155 5627.78 5627.78 0 0 0-1.06 10.638zm31.649-4.996H36.472V12.442h13.217zm-12.217-1h11.217V13.442H37.472zM61 26.77h-9.311V12.442H61v1h-8.311V25.77H61v1z"></path><path d="M16.605 20.881A10.231 10.231 0 0 1 22 12.748l1.468-.758a9.462 9.462 0 0 1 4.3-1.05H61v-2H27.77a11.472 11.472 0 0 0-5.219 1.272l-1.471.76a12.226 12.226 0 0 0-6.465 9.711c-.227 2.325-.5 5.087-.778 7.89-.285 2.877-.574 5.8-.822 8.343l-.461 4.884a6.663 6.663 0 0 0-.013 1.165 7.762 7.762 0 0 0 2.6 5.413 7.15 7.15 0 0 0 4.709 1.792h12.6a6.7 6.7 0 0 0 12.9 0H61v-2H45.6a6.7 6.7 0 0 0-.374-2.06 6.7 6.7 0 0 0-13.016 2.06H19.85a5.151 5.151 0 0 1-3.389-1.29 5.735 5.735 0 0 1-1.836-3.311 3.548 3.548 0 0 0 .438-7.054c.235-2.4.5-5.085.764-7.744.273-2.806.552-5.571.778-7.89Zm21.308 22.863a4.71 4.71 0 1 1-3.718 4.6 4.757 4.757 0 0 1 3.718-4.6ZM17.08 40.02a2.555 2.555 0 0 1-2.553 2.552 5.325 5.325 0 0 1 .019-.589l.421-4.478a2.56 2.56 0 0 1 2.113 2.515Z"></path></g></svg>