<?xml version="1.0" standalone="no"?>
<!DOCTYPE svg PUBLIC "-//W3C//DTD SVG 20010904//EN"
 "http://www.w3.org/TR/2001/REC-SVG-20010904/DTD/svg10.dtd">
<svg version="1.0" xmlns="http://www.w3.org/2000/svg"
 width="225.000000pt" height="225.000000pt" viewBox="0 0 225.000000 225.000000"
 preserveAspectRatio="xMidYMid meet">

<g transform="translate(0.000000,225.000000) scale(0.100000,-0.100000)"
fill="#000000" stroke="none">
<path d="M1150 2000 c-77 -10 -193 -53 -254 -93 -28 -19 -94 -73 -146 -121
-52 -48 -129 -114 -170 -146 -133 -104 -160 -157 -128 -249 10 -30 18 -65 18
-78 0 -77 75 -155 215 -223 290 -141 578 -153 838 -36 183 83 357 282 357 407
0 39 -5 54 -31 81 -23 25 -29 39 -24 58 25 99 12 128 -97 220 -114 96 -254
158 -403 180 -77 11 -95 11 -175 0z m580 -470 c0 -5 -15 -13 -34 -20 -18 -6
-42 -20 -51 -30 -10 -11 -28 -20 -40 -20 -12 0 -34 -9 -48 -20 -14 -11 -40
-20 -60 -20 -19 0 -40 -7 -48 -16 -9 -11 -24 -15 -50 -11 -23 3 -45 0 -57 -9
-11 -7 -39 -13 -63 -14 -98 -1 -145 -6 -165 -17 -13 -8 -31 -9 -50 -4 -19 5
-38 4 -56 -6 -15 -7 -38 -11 -51 -8 -15 4 -28 1 -36 -9 -8 -10 -29 -16 -52
-16 -21 0 -41 -5 -45 -11 -4 -7 -21 -9 -40 -6 -20 4 -45 0 -61 -8 -24 -13 -30
-12 -50 0 -12 8 -45 15 -72 15 -59 0 -81 17 -81 65 0 44 32 67 88 64 23 -2 48
3 57 11 9 7 37 15 63 17 75 5 105 9 132 16 15 5 42 2 70 -8 25 -9 103 -23 175
-31 204 -24 315 -8 487 70 41 19 83 36 94 38 23 5 44 -1 44 -12z"/>
<path d="M524 696 c-92 -40 -113 -179 -39 -253 32 -32 37 -34 97 -31 48 2 64
7 66 19 2 13 -6 15 -52 11 -51 -4 -57 -2 -86 26 -26 26 -30 38 -30 82 0 28 7
64 15 79 17 34 66 54 111 45 40 -7 55 12 19 26 -35 13 -63 12 -101 -4z"/>
<path d="M795 703 c-50 -13 -95 -82 -95 -148 0 -87 53 -145 131 -145 42 0 55
5 86 33 31 29 37 41 41 89 5 69 -11 122 -47 147 -29 21 -84 32 -116 24z m102
-60 c64 -78 23 -203 -66 -203 -32 0 -44 6 -65 31 -46 54 -29 176 27 199 34 15
80 3 104 -27z"/>
<path d="M1523 699 l-43 -10 0 -140 c0 -117 2 -139 15 -139 13 0 15 21 15 125
l0 125 26 10 c15 6 42 8 60 4 27 -5 34 -3 34 10 0 9 -6 16 -12 16 -7 0 -22 2
-33 4 -11 2 -39 0 -62 -5z"/>
<path d="M1010 698 c1 -17 36 -132 62 -200 48 -130 60 -123 124 73 l18 53 34
-103 c33 -98 52 -125 73 -104 14 14 88 233 89 261 0 12 -6 22 -12 22 -8 0 -25
-41 -41 -98 -37 -124 -45 -145 -56 -138 -5 3 -24 58 -42 121 -20 68 -38 115
-46 115 -7 0 -17 -19 -23 -42 -24 -95 -63 -199 -70 -191 -10 10 -70 198 -70
218 0 8 -9 15 -20 15 -11 0 -20 -1 -20 -2z"/>
<path d="M1660 687 c0 -21 44 -144 79 -220 22 -50 28 -73 21 -86 -15 -30 -38
-43 -74 -44 -56 -2 -55 -27 1 -27 70 0 101 38 151 192 52 160 60 198 38 198
-10 0 -19 -15 -26 -42 -35 -135 -57 -203 -65 -201 -11 1 -58 113 -80 191 -10
32 -21 52 -30 52 -8 0 -15 -6 -15 -13z"/>
</g>
</svg>
